<svg xmlns="http://www.w3.org/2000/svg" width="500" height="500" fill="none"><rect width="500" height="500" fill="#ED164F" rx="120"/><path fill="#fff" d="M435.9 139.631c-1.189-11.154-3.72-22.098-9.549-31.834-11.026-18.42-27.306-30.27-47.645-36.77-22.55-7.202-45.855-8.951-69.313-9.577-19.265-.517-38.536-.99-57.807-1.481-29.595-.875-59.182-1.922-88.757.67-17.961 1.57-35.564 4.578-52.746 10.33C96.13 75.644 85.2 83.688 78.955 96.994c-4.263 9.091-8.098 18.534-10.776 28.195-8.06 29.107-10.477 59.052-10.15 89.073.293 27.518 2.096 55.036 3.56 82.535.812 15.304 3.336 30.391 7.74 45.121 7.108 23.77 21.758 40.613 45.887 47.681 11.358 3.332 23.222 5.127 34.963 6.902 21.176 3.192 42.512 4.75 63.938 5.037 17.36.23 34.72.479 52.074.888 1.419.031 3.036 1.066 4.161 2.081 2.838 2.547 5.069 5.944 8.22 7.936 11.134 7.023 22.224 14.264 33.966 20.157 10.176 5.101 21.361 7.84 33.007 7.342 4.973-.217 6.52-2.337 5.075-7.106-1.048-3.441-2.499-6.768-3.822-10.126-2.755-6.992-4.73-14.136-3.969-21.74.613-6.149.696-6.136 6.871-7.183 1.048-.179 2.077-.453 3.132-.594 11.173-1.494 22.384-2.739 33.512-4.507 15.756-2.497 27.747-10.669 35.762-24.594 5.248-9.111 8.681-18.88 11.269-29.006 5.842-22.845 7.127-46.187 7.466-69.593.62-42.037-.479-84.023-4.941-125.862ZM292.327 333.528c-.243 6.959-2.576 8.856-9.594 8.868-10.751.02-21.509.052-32.26-.025-4.647-.032-5.906-1.2-6.174-5.785-.742-12.846-1.355-25.698-2.046-38.551-.62-11.466-1.233-22.933-1.943-34.394-.217-3.518-2.339-5.644-5.784-5.504-18.076.735-36.152 1.494-54.216 2.497-5.522.306-6.481 1.775-6.244 7.381.703 16.785 1.521 33.57 2.122 50.362.23 6.359.204 12.75-.103 19.103-.204 4.214-1.502 5.051-5.708 5.082-12.138.103-24.276.32-36.414.294-10.553-.025-10.425-.242-10.706-10.726-.869-32.109-1.937-64.211-2.876-96.32-.946-32.319-1.931-64.639-2.678-96.965-.243-10.311.568-11.211 11.013-11.856 10.073-.619 20.191-.434 30.29-.638 3.139-.064 4.794 1.481 5.024 4.507.633 8.262 1.164 16.53 1.784 24.792 1.067 14.308 2.096 28.623 3.317 42.924.531 6.213 1.969 6.883 8.188 6.73 16.708-.421 33.423-.536 50.137-.773 1.061-.012 2.135.051 3.184-.064 4.589-.51 5.535-1.455 5.496-6.039-.159-18.401-.383-36.808-.588-55.209-.012-.747-.057-1.494-.063-2.235-.032-8.581 2.249-12.137 10.687-12.91 11.288-1.028 22.697-1.277 34.036-1.04 5.881.121 6.852 2.049 6.954 8.096.294 16.804.486 33.615.857 50.42.294 13.293.799 26.579 1.214 39.872h-.166c.901 30.2 1.796 60.399 2.71 90.593.179 5.842.755 11.69.55 17.513Zm82.857-36.131c-.057 12.961-.141 25.928-.351 38.889-.064 3.882-1.285 5.044-5.171 5.485-2.743.313-5.517.491-8.271.466-8.617-.09-17.233-.319-25.855-.453-4.973-.083-6.852-1.514-6.98-6.596-.23-9.558-.07-19.122-.07-28.68-.007-12.546-.007-25.098-.007-37.644h-.626c.466-21.044.952-42.088 1.38-63.126.051-2.643 1.279-4.01 3.855-4.016 11.383-.032 22.774-.204 34.151.077 5.714.14 8.265 3.396 8.246 9.149-.096 28.821-.173 57.635-.301 86.455v-.006ZM352.41 174.491c-16.414.007-27.721-10.228-27.76-25.117-.038-15.502 11.883-27.237 27.632-27.205 14.522.031 24.455 10.911 24.481 26.809.025 14.729-10.265 25.513-24.353 25.513Z"/></svg>